# Blender 3.4.1
# www.blender.org
mtllib spike.mtl
o cube
v -0.353553 3.000000 -0.353553
v -0.353553 3.000000 -0.353553
v -0.353553 0.000000 -0.353553
v -0.353553 0.000000 -0.353553
v 0.353553 3.000000 0.353554
v 0.353553 3.000000 0.353554
v 0.353553 -0.000000 0.353553
v 0.353553 -0.000000 0.353553
vn -0.7071 -0.0000 0.7071
vn -0.0000 0.7071 -0.7071
vn -0.0000 -0.0000 -1.0000
vn -0.7071 -0.0000 -0.7071
vn 0.7071 -0.0000 -0.7071
vn -0.0000 0.7071 0.7071
vn -0.0000 -0.0000 1.0000
vn 0.7071 -0.0000 0.7071
vn -0.0000 1.0000 -0.0000
vn 0.9350 -0.0000 0.3545
vn -0.0000 -1.0000 -0.0000
vn -0.0000 -0.7071 -0.7071
vn -0.0000 -0.7071 0.7071
vn -0.9510 -0.0000 -0.3090
vn -0.0000 1.0000 -0.0001
vn -0.0000 -1.0000 -0.0001
vt 0.500000 1.000000
vt 0.000000 1.000000
vt 0.000000 1.000000
vt 0.000000 0.250000
vt 0.500000 0.250000
vt 0.250000 1.000000
vt 0.000000 0.250000
vt 0.250000 1.000000
vt 0.250000 1.000000
vt 0.250000 1.000000
vt 0.250000 0.250000
vt 0.500000 1.000000
vt 0.500000 1.000000
vt 0.250000 0.250000
s 0
usemtl 
f 7/11/1 2/3/1 4/7/1
f 3/4/2 2/3/3 1/2/4
f 3/5/5 6/10/5 8/14/5
f 7/11/6 6/10/7 5/9/8
f 6/10/9 2/3/10 5/9/3
f 7/12/11 3/6/10 8/13/3
f 7/11/1 5/9/1 2/3/1
f 3/4/3 4/7/4 2/3/12
f 3/5/5 1/1/5 6/10/5
f 7/11/7 8/14/8 6/10/13
f 6/10/14 1/2/3 2/3/15
f 7/12/14 4/8/3 3/6/16
o cube.001
v 0.353553 3.000000 -0.353553
v 0.353553 3.000000 -0.353553
v 0.353553 0.000000 -0.353553
v 0.353553 0.000000 -0.353553
v -0.353553 3.000000 0.353554
v -0.353553 3.000000 0.353554
v -0.353553 -0.000000 0.353553
v -0.353553 -0.000000 0.353553
vn -0.7071 -0.0000 -0.7071
vn -0.0000 0.7071 -0.7071
vn -0.0000 -0.0000 -1.0000
vn 0.7071 -0.0000 -0.7071
vn 0.7071 -0.0000 0.7071
vn -0.0000 0.7071 0.7071
vn -0.0000 -0.0000 1.0000
vn -0.7071 -0.0000 0.7071
vn -0.0000 1.0000 -0.0000
vn -0.9350 -0.0000 0.3545
vn -0.0000 -1.0000 -0.0000
vn -0.0000 -0.7071 -0.7071
vn -0.0000 -0.7071 0.7071
vn 0.9510 -0.0000 -0.3090
vn -0.0000 1.0000 -0.0001
vn -0.0000 -1.0000 -0.0001
vt 0.500000 1.000000
vt 0.000000 1.000000
vt 0.000000 1.000000
vt 0.000000 0.250000
vt 0.500000 0.250000
vt 0.250000 1.000000
vt 0.000000 0.250000
vt 0.250000 1.000000
vt 0.250000 1.000000
vt 0.250000 1.000000
vt 0.250000 0.250000
vt 0.500000 1.000000
vt 0.500000 1.000000
vt 0.250000 0.250000
s 0
usemtl 
f 15/25/17 10/17/17 12/21/17
f 11/18/18 10/17/19 9/16/20
f 11/19/21 14/24/21 16/28/21
f 15/25/22 14/24/23 13/23/24
f 14/24/25 10/17/26 13/23/19
f 15/26/27 11/20/26 16/27/19
f 15/25/17 13/23/17 10/17/17
f 11/18/19 12/21/20 10/17/28
f 11/19/21 9/15/21 14/24/21
f 15/25/23 16/28/24 14/24/29
f 14/24/30 9/16/19 10/17/31
f 15/26/30 12/22/19 11/20/32
o cube.002
v -0.707107 0.707107 0.500000
v -0.707107 0.707107 -0.500000
v 0.000000 -0.000000 0.500000
v 0.000000 0.000000 -0.500000
v -0.707107 0.707107 -0.500000
v -0.707107 0.707107 0.500000
v 0.000000 0.000000 -0.500000
v 0.000000 -0.000000 0.500000
vn -0.0000 -0.0000 -1.0000
vn 0.7071 0.7071 -0.0000
vn -0.0000 -0.0000 1.0000
vn -0.7071 -0.7071 -0.0000
vn -0.0000 -0.0000 -0.0000
vt 0.000000 0.250000
vt 0.500000 0.250000
vt 0.250000 0.500000
vt 0.250000 0.250000
vt 0.000000 0.000000
vt 0.500000 0.000000
vt 0.250000 0.500000
vt 0.250000 0.000000
vt 0.250000 0.250000
vt 0.250000 0.250000
vt 0.500000 0.250000
vt 0.250000 0.500000
vt 0.250000 0.000000
vt 0.250000 0.250000
vt 0.250000 0.500000
vt 0.500000 0.000000
s 0
usemtl 
f 20/36/33 21/38/33 18/32/33
f 20/36/34 17/29/34 19/33/34
f 24/44/35 17/30/35 22/39/35
f 24/44/36 21/38/36 23/41/36
f 22/40/37 18/32/37 21/38/37
f 23/42/37 19/35/37 24/43/37
f 20/36/33 23/41/33 21/38/33
f 20/36/34 18/32/34 17/29/34
f 24/44/35 19/34/35 17/30/35
f 24/44/36 22/39/36 21/38/36
f 22/40/37 17/31/37 18/32/37
f 23/42/37 20/37/37 19/35/37
o cube.003
v 0.707107 0.707107 0.500000
v 0.707107 0.707107 -0.500000
v 0.000000 -0.000000 0.500000
v 0.000000 0.000000 -0.500000
v 0.707107 0.707107 -0.500000
v 0.707107 0.707107 0.500000
v 0.000000 0.000000 -0.500000
v 0.000000 -0.000000 0.500000
vn -0.0000 -0.0000 -1.0000
vn 0.7071 -0.7071 -0.0000
vn -0.0000 -0.0000 1.0000
vn -0.7071 0.7071 -0.0000
vn -0.0000 -0.0000 -0.0000
vt 0.000000 0.250000
vt 0.500000 0.250000
vt 0.250000 0.500000
vt 0.250000 0.250000
vt 0.000000 0.000000
vt 0.500000 0.000000
vt 0.250000 0.500000
vt 0.250000 0.000000
vt 0.250000 0.250000
vt 0.250000 0.250000
vt 0.500000 0.250000
vt 0.250000 0.500000
vt 0.250000 0.000000
vt 0.250000 0.250000
vt 0.250000 0.500000
vt 0.500000 0.000000
s 0
usemtl 
f 28/52/38 29/54/38 26/48/38
f 28/52/39 25/45/39 27/49/39
f 32/60/40 25/46/40 30/55/40
f 32/60/41 29/54/41 31/57/41
f 30/56/42 26/48/42 29/54/42
f 31/58/42 27/51/42 32/59/42
f 28/52/38 31/57/38 29/54/38
f 28/52/39 26/48/39 25/45/39
f 32/60/40 27/50/40 25/46/40
f 32/60/41 30/55/41 29/54/41
f 30/56/42 25/47/42 26/48/42
f 31/58/42 28/53/42 27/51/42
o cube.004
v 0.500000 0.707107 0.707107
v 0.500000 0.707107 0.707107
v 0.500000 0.000000 0.000000
v 0.500000 0.000000 0.000000
v -0.500000 0.707107 0.707107
v -0.500000 0.707107 0.707107
v -0.500000 0.000000 0.000000
v -0.500000 0.000000 0.000000
vn -0.0000 0.7071 -0.7071
vn -0.0000 0.9350 0.3545
vn -0.0000 -0.0000 -1.0000
vn 1.0000 -0.0000 -0.0000
vn -0.0000 -0.7071 0.7071
vn -1.0000 -0.0000 -0.0000
vn -0.0000 0.7071 0.7071
vn -0.7071 -0.0000 0.7071
vn -0.0000 -0.0000 1.0000
vn -0.0000 -0.7071 -0.7071
vn -0.7071 -0.0000 -0.7071
vn 1.0000 -0.0000 -0.0001
vn -0.0000 -0.9510 -0.3090
vn -1.0000 -0.0000 -0.0001
vn 0.7071 -0.0000 0.7071
vn 0.7071 -0.0000 -0.7071
vt 0.500000 0.250000
vt 0.000000 0.250000
vt 0.000000 0.250000
vt 0.000000 0.000000
vt 0.500000 0.000000
vt 0.250000 0.250000
vt 0.000000 0.000000
vt 0.250000 0.250000
vt 0.250000 0.250000
vt 0.250000 0.250000
vt 0.250000 0.000000
vt 0.500000 0.250000
vt 0.500000 0.250000
vt 0.250000 0.000000
s 0
usemtl 
f 39/71/43 34/63/43 36/67/43
f 35/64/44 34/63/45 33/62/46
f 35/65/47 38/70/47 40/74/47
f 39/71/44 38/70/45 37/69/48
f 38/70/49 34/63/50 37/69/51
f 39/72/52 35/66/53 40/73/45
f 39/71/43 37/69/43 34/63/43
f 35/64/45 36/67/54 34/63/55
f 35/65/47 33/61/47 38/70/47
f 39/71/45 40/74/56 38/70/55
f 38/70/57 33/62/51 34/63/49
f 39/72/58 36/68/45 35/66/52
o cube.005
v 0.500000 0.707107 -0.707107
v 0.500000 0.707107 -0.707107
v 0.500000 0.000000 0.000000
v 0.500000 0.000000 0.000000
v -0.500000 0.707107 -0.707107
v -0.500000 0.707107 -0.707107
v -0.500000 0.000000 0.000000
v -0.500000 0.000000 0.000000
vn -0.0000 -0.7071 -0.7071
vn -0.0000 0.9510 -0.3090
vn -0.0000 -0.0000 -1.0000
vn 1.0000 -0.0000 -0.0001
vn -0.0000 0.7071 0.7071
vn -1.0000 -0.0000 -0.0001
vn -0.0000 0.7071 -0.7071
vn -0.7071 -0.0000 -0.7071
vn -0.0000 -0.7071 0.7071
vn -0.7071 -0.0000 0.7071
vn -0.0000 -0.0000 1.0000
vn 1.0000 -0.0000 -0.0000
vn -0.0000 -0.9350 0.3545
vn -1.0000 -0.0000 -0.0000
vn 0.7071 -0.0000 -0.7071
vn 0.7071 -0.0000 0.7071
vt 0.500000 0.250000
vt 0.000000 0.250000
vt 0.000000 0.250000
vt 0.000000 0.000000
vt 0.500000 0.000000
vt 0.250000 0.250000
vt 0.000000 0.000000
vt 0.250000 0.250000
vt 0.250000 0.250000
vt 0.250000 0.250000
vt 0.250000 0.000000
vt 0.500000 0.250000
vt 0.500000 0.250000
vt 0.250000 0.000000
s 0
usemtl 
f 47/85/59 42/77/59 44/81/59
f 43/78/60 42/77/61 41/76/62
f 43/79/63 46/84/63 48/88/63
f 47/85/60 46/84/61 45/83/64
f 46/84/65 42/77/66 45/83/61
f 47/86/67 43/80/68 48/87/69
f 47/85/59 45/83/59 42/77/59
f 43/78/61 44/81/70 42/77/71
f 43/79/63 41/75/63 46/84/63
f 47/85/61 48/88/72 46/84/71
f 46/84/73 41/76/61 42/77/65
f 47/86/74 44/82/69 43/80/67
